# xmcd
#
# Track frame offsets:
#	150
#	29262
#	52297
#	59100
#	88765
#	135882
#	169947
#	196447
#	217645
#	250330
#
# Disc length: 3569 seconds
#
# Revision: 0
# Processed by: cddbd v1.5PL3 Copyright (c) Steve Scherf et al.
# Submitted via: dBpowerAMP V4.0
#
DISCID=900def0a
DTITLE=Various Artist - Once Upon A Time
DYEAR=1992
DGENRE=Undefined
TTITLE0=The Old Man's Mitten, This Is The Way
TTITLE1=The Dog Next Door, My Dog Spot
TTITLE2=Marmalade, The Old Grey Cat
TTITLE3=Jimmy's Box, Dragon Song
TTITLE4=The Four Musicians, Sweetly SingsThe Donkey, Donkey Riding
TTITLE5=Henny Penny, There's a Fox Out Hunting
TTITLE6=A Pile Of Clothes, I Jump Out Of Bed In The Morning
TTITLE7=Fearless Fred And The Jumble Sale, The Hippo Song
TTITLE8=The Great Big Enormous Turnip, My Garden
TTITLE9=The Picnic
EXTD=
EXTT0=
EXTT1=
EXTT2=
EXTT3=
EXTT4=
EXTT5=
EXTT6=
EXTT7=
EXTT8=
EXTT9=
PLAYORDER=
